<!-- Generated by IcoMoon.io -->
<svg version="1.1" xmlns="http://www.w3.org/2000/svg" width="25" height="25" viewBox="0 0 25 25">
<title>coin-dollar</title>
<path fill="#fff" d="M11.719 1.563c-6.472 0-11.719 5.247-11.719 11.719s5.247 11.719 11.719 11.719c6.472 0 11.719-5.247 11.719-11.719s-5.247-11.719-11.719-11.719zM11.719 22.656c-5.178 0-9.375-4.197-9.375-9.375s4.197-9.375 9.375-9.375c5.178 0 9.375 4.197 9.375 9.375s-4.197 9.375-9.375 9.375zM12.5 12.5v-3.125h3.125v-1.563h-3.125v-1.563h-1.563v1.563h-3.125v6.25h3.125v3.125h-3.125v1.563h3.125v1.563h1.563v-1.563h3.125l-0-6.25h-3.125zM10.938 12.5h-1.563v-3.125h1.563v3.125zM14.063 17.188h-1.563v-3.125h1.563v3.125z"></path>
</svg>
