<!-- Generated by IcoMoon.io -->
<svg version="1.1" xmlns="http://www.w3.org/2000/svg" width="20" height="20" viewBox="0 0 20 20">
<title>ungroup</title>
<path fill="#fff" d="M7.5 9.063c0 0.516-0.422 0.938-0.938 0.938h-1.875c-0.516 0-0.938-0.422-0.938-0.938v-1.875c0-0.516 0.422-0.938 0.938-0.938h1.875c0.516 0 0.938 0.422 0.938 0.938v1.875z"></path>
<path fill="#fff" d="M13.75 9.063c0 0.516-0.422 0.938-0.938 0.938h-1.875c-0.516 0-0.938-0.422-0.938-0.938v-1.875c0-0.516 0.422-0.938 0.938-0.938h1.875c0.516 0 0.938 0.422 0.938 0.938v1.875z"></path>
<path fill="#fff" d="M7.5 15.313c0 0.516-0.422 0.938-0.938 0.938h-1.875c-0.516 0-0.938-0.422-0.938-0.938v-1.875c0-0.516 0.422-0.938 0.938-0.938h1.875c0.516 0 0.938 0.422 0.938 0.938v1.875z"></path>
<path fill="#fff" d="M13.75 15.313c0 0.516-0.422 0.938-0.938 0.938h-1.875c-0.516 0-0.938-0.422-0.938-0.938v-1.875c0-0.516 0.422-0.938 0.938-0.938h1.875c0.516 0 0.938 0.422 0.938 0.938v1.875z"></path>
<path fill="#fff" d="M17.814 3.125l2.186-2.186v-0.939h-0.939l-2.186 2.186-2.186-2.186h-0.939v0.939l2.186 2.186-2.186 2.186v0.939h0.939l2.186-2.186 2.186 2.186h0.939v-0.939z"></path>
<path fill="#fff" d="M0 15h1.25v2.5h-1.25v-2.5z"></path>
<path fill="#fff" d="M0 11.25h1.25v2.5h-1.25v-2.5z"></path>
<path fill="#fff" d="M16.25 8.75h1.25v2.5h-1.25v-2.5z"></path>
<path fill="#fff" d="M16.25 16.25h1.25v2.5h-1.25v-2.5z"></path>
<path fill="#fff" d="M16.25 12.5h1.25v2.5h-1.25v-2.5z"></path>
<path fill="#fff" d="M0 7.5h1.25v2.5h-1.25v-2.5z"></path>
<path fill="#fff" d="M0 3.75h1.25v2.5h-1.25v-2.5z"></path>
<path fill="#fff" d="M10 2.5h2.5v1.25h-2.5v-1.25z"></path>
<path fill="#fff" d="M6.25 2.5h2.5v1.25h-2.5v-1.25z"></path>
<path fill="#fff" d="M2.5 2.5h2.5v1.25h-2.5v-1.25z"></path>
<path fill="#fff" d="M8.75 18.75h2.5v1.25h-2.5v-1.25z"></path>
<path fill="#fff" d="M12.5 18.75h2.5v1.25h-2.5v-1.25z"></path>
<path fill="#fff" d="M5 18.75h2.5v1.25h-2.5v-1.25z"></path>
<path fill="#fff" d="M1.25 18.75h2.5v1.25h-2.5v-1.25z"></path>
</svg>
